<svg xmlns="http://www.w3.org/2000/svg" xmlns:xlink="http://www.w3.org/1999/xlink" width="500" zoomAndPan="magnify" viewBox="0 0 375 135.000003" height="180" preserveAspectRatio="xMidYMid meet" version="1.0"><defs><g/><clipPath id="5be6082bb5"><path d="M 1.378906 0 L 373.621094 0 L 373.621094 134.007812 L 1.378906 134.007812 Z M 1.378906 0 " clip-rule="nonzero"/></clipPath><clipPath id="07bb1247e6"><path d="M 60 10.304688 L 87 10.304688 L 87 70 L 60 70 Z M 60 10.304688 " clip-rule="nonzero"/></clipPath><clipPath id="2f39ce4549"><path d="M 86 10.304688 L 108 10.304688 L 108 70 L 86 70 Z M 86 10.304688 " clip-rule="nonzero"/></clipPath><clipPath id="7f94be11c8"><path d="M 156 82 L 158.582031 82 L 158.582031 85 L 156 85 Z M 156 82 " clip-rule="nonzero"/></clipPath><clipPath id="d4b4c42729"><path d="M 8.941406 82 L 12 82 L 12 85 L 8.941406 85 Z M 8.941406 82 " clip-rule="nonzero"/></clipPath><clipPath id="bb4a95df77"><path d="M 82 118 L 88 118 L 88 123.46875 L 82 123.46875 Z M 82 118 " clip-rule="nonzero"/></clipPath><clipPath id="7a78925f64"><path d="M 113 121 L 116 121 L 116 123.46875 L 113 123.46875 Z M 113 121 " clip-rule="nonzero"/></clipPath><clipPath id="e6fba95ff2"><rect x="0" width="204" y="0" height="43"/></clipPath><clipPath id="8906070ce2"><rect x="0" width="102" y="0" height="28"/></clipPath></defs><g clip-path="url(#5be6082bb5)"><path fill="#ffffff" d="M 1.378906 0 L 373.621094 0 L 373.621094 134.007812 L 1.378906 134.007812 Z M 1.378906 0 " fill-opacity="1" fill-rule="nonzero"/><path fill="#efecec" d="M 1.378906 0 L 373.621094 0 L 373.621094 134.007812 L 1.378906 134.007812 Z M 1.378906 0 " fill-opacity="1" fill-rule="nonzero"/></g><path fill="#003d20" d="M 91.910156 59.636719 C 92.980469 60.410156 93.785156 61.574219 94.355469 62.796875 C 94.921875 64.019531 95.25 65.332031 95.546875 66.613281 C 95.84375 67.898438 96.144531 69.179688 96.5625 70.34375 C 97.007812 71.535156 97.542969 72.699219 98.199219 73.800781 C 98.855469 74.875 99.632812 75.890625 100.527344 76.722656 C 100.972656 77.140625 101.480469 77.46875 102.019531 77.796875 C 102.554688 78.097656 103.121094 78.363281 103.71875 78.574219 C 104.316406 78.753906 104.910156 78.871094 105.507812 78.84375 C 105.804688 78.8125 106.074219 78.78125 106.34375 78.664062 C 106.609375 78.574219 106.851562 78.394531 107.058594 78.214844 C 107.238281 78.035156 107.355469 77.769531 107.445312 77.46875 C 107.503906 77.171875 107.535156 76.875 107.503906 76.574219 C 107.476562 76.277344 107.355469 75.980469 107.117188 75.800781 C 107 75.710938 106.851562 75.679688 106.699219 75.710938 C 106.550781 75.710938 106.371094 75.769531 106.222656 75.828125 C 106.371094 75.742188 106.523438 75.652344 106.671875 75.621094 C 106.851562 75.589844 107.027344 75.589844 107.207031 75.652344 C 107.386719 75.710938 107.503906 75.859375 107.625 76.007812 C 107.714844 76.15625 107.804688 76.335938 107.832031 76.484375 C 107.921875 76.84375 107.953125 77.203125 107.921875 77.53125 C 107.863281 77.886719 107.773438 78.246094 107.535156 78.574219 C 107.296875 78.871094 107 79.109375 106.671875 79.257812 C 106.34375 79.4375 105.984375 79.527344 105.625 79.585938 C 104.910156 79.707031 104.195312 79.617188 103.507812 79.4375 C 102.824219 79.257812 102.167969 79.019531 101.570312 78.691406 C 100.945312 78.363281 100.347656 78.007812 99.8125 77.53125 C 98.738281 76.636719 97.902344 75.53125 97.1875 74.367188 C 96.5 73.207031 95.933594 71.953125 95.515625 70.671875 C 95.097656 69.359375 94.859375 68.046875 94.652344 66.734375 C 94.441406 65.453125 94.234375 64.167969 93.816406 62.945312 C 93.398438 61.753906 92.804688 60.589844 91.910156 59.636719 Z M 91.910156 59.636719 " fill-opacity="1" fill-rule="nonzero"/><path fill="#003d20" d="M 62.234375 75.203125 C 61.964844 74.964844 61.609375 74.964844 61.308594 75.085938 C 61.011719 75.203125 60.832031 75.472656 60.742188 75.769531 C 60.5625 76.367188 60.742188 77.023438 61.128906 77.5 C 61.519531 77.976562 62.054688 78.304688 62.652344 78.484375 C 62.949219 78.574219 63.25 78.601562 63.546875 78.601562 C 63.695312 78.601562 63.84375 78.601562 63.992188 78.574219 C 64.144531 78.542969 64.292969 78.542969 64.472656 78.484375 C 65.695312 78.1875 66.828125 77.46875 67.839844 76.636719 C 68.347656 76.21875 68.824219 75.742188 69.273438 75.261719 C 69.71875 74.785156 70.167969 74.277344 70.554688 73.742188 C 72.164062 71.65625 73.03125 69.03125 74.164062 66.523438 C 74.730469 65.273438 75.386719 63.988281 76.222656 62.855469 C 77.085938 61.722656 78.160156 60.769531 79.414062 60.203125 C 78.277344 61.007812 77.382812 62.050781 76.699219 63.183594 C 76.011719 64.347656 75.503906 65.601562 75 66.851562 C 74.519531 68.136719 74.074219 69.449219 73.539062 70.730469 C 73.269531 71.386719 72.96875 72.011719 72.640625 72.640625 C 72.3125 73.265625 71.898438 73.890625 71.480469 74.457031 C 70.613281 75.589844 69.628906 76.636719 68.527344 77.53125 C 67.960938 77.976562 67.363281 78.363281 66.707031 78.722656 C 66.050781 79.050781 65.367188 79.320312 64.621094 79.4375 C 64.441406 79.46875 64.261719 79.46875 64.054688 79.5 C 63.875 79.527344 63.664062 79.527344 63.488281 79.5 C 63.097656 79.46875 62.710938 79.378906 62.351562 79.257812 C 61.636719 78.992188 61.011719 78.515625 60.59375 77.859375 C 60.175781 77.203125 60.058594 76.367188 60.386719 75.679688 C 60.535156 75.351562 60.832031 75.023438 61.21875 74.933594 C 61.609375 74.816406 62.027344 74.90625 62.234375 75.203125 Z M 62.234375 75.203125 " fill-opacity="1" fill-rule="nonzero"/><path fill="#003d20" d="M 82.007812 59.695312 C 83.199219 56.59375 83.378906 53.195312 82.574219 50.03125 C 82.15625 48.453125 81.46875 46.960938 81.023438 45.320312 C 80.546875 43.679688 80.425781 41.890625 80.933594 40.191406 C 81.171875 39.355469 81.589844 38.519531 82.1875 37.835938 C 82.78125 37.148438 83.558594 36.613281 84.421875 36.285156 C 85.289062 35.957031 86.242188 35.835938 87.167969 36.046875 C 87.644531 36.136719 88.089844 36.34375 88.480469 36.582031 C 88.894531 36.820312 89.253906 37.148438 89.550781 37.476562 C 89.878906 37.835938 90.117188 38.191406 90.328125 38.609375 C 90.535156 39 90.714844 39.414062 90.835938 39.832031 C 90.984375 40.25 91.074219 40.667969 91.164062 41.117188 C 91.253906 41.535156 91.28125 41.980469 91.3125 42.398438 C 91.429688 44.097656 91.28125 45.828125 90.925781 47.496094 C 90.238281 50.839844 88.867188 53.910156 87.523438 56.921875 C 86.152344 59.933594 84.78125 62.917969 84.003906 66.078125 C 83.230469 69.238281 83.199219 72.550781 83.199219 75.859375 C 83.199219 77.5 83.199219 79.171875 83.4375 80.78125 C 83.558594 81.585938 83.765625 82.390625 84.066406 83.136719 C 84.363281 83.910156 84.78125 84.628906 85.316406 85.253906 C 84.75 84.65625 84.273438 83.972656 83.914062 83.195312 C 83.558594 82.449219 83.320312 81.644531 83.140625 80.808594 C 82.78125 79.171875 82.722656 77.5 82.632812 75.828125 C 82.574219 74.191406 82.515625 72.519531 82.542969 70.847656 C 82.574219 69.179688 82.753906 67.507812 83.109375 65.839844 C 84.542969 59.1875 88.507812 53.582031 89.761719 47.199219 C 90.089844 45.617188 90.238281 44.007812 90.148438 42.429688 C 90.117188 42.039062 90.089844 41.652344 90.03125 41.265625 C 89.96875 40.878906 89.878906 40.488281 89.761719 40.132812 C 89.640625 39.773438 89.492188 39.414062 89.3125 39.085938 C 89.132812 38.757812 88.957031 38.433594 88.6875 38.164062 C 88.449219 37.894531 88.179688 37.65625 87.882812 37.476562 C 87.582031 37.296875 87.253906 37.148438 86.929688 37.058594 C 86.242188 36.910156 85.496094 36.96875 84.78125 37.238281 C 84.421875 37.359375 84.09375 37.535156 83.796875 37.746094 C 83.5 37.953125 83.199219 38.191406 82.960938 38.460938 C 82.453125 39 82.097656 39.683594 81.859375 40.429688 C 81.621094 41.175781 81.5 41.949219 81.5 42.726562 C 81.5 43.5 81.621094 44.308594 81.796875 45.082031 C 82.15625 46.664062 82.8125 48.183594 83.171875 49.855469 C 83.824219 53.195312 83.4375 56.714844 82.007812 59.695312 Z M 82.007812 59.695312 " fill-opacity="1" fill-rule="nonzero"/><g clip-path="url(#07bb1247e6)"><path fill="#003d20" d="M 61.339844 69.058594 C 59.96875 63.632812 59.699219 57.875 60.535156 52.269531 C 61.308594 46.664062 63.1875 41.207031 65.933594 36.226562 C 66.617188 35.003906 67.363281 33.777344 68.199219 32.617188 C 68.585938 32.019531 69.035156 31.453125 69.453125 30.886719 C 69.660156 30.589844 69.898438 30.320312 70.109375 30.050781 C 70.316406 29.78125 70.554688 29.484375 70.792969 29.214844 C 72.613281 27.039062 74.671875 25.042969 76.878906 23.28125 L 77.710938 22.625 C 77.980469 22.417969 78.25 22.207031 78.519531 21.96875 C 79.054688 21.523438 79.5625 21.074219 80.097656 20.597656 C 81.113281 19.671875 82.097656 18.6875 82.992188 17.644531 C 83.4375 17.109375 83.855469 16.570312 84.242188 16.003906 C 84.632812 15.4375 84.988281 14.839844 85.316406 14.246094 C 85.644531 13.648438 85.914062 12.992188 86.121094 12.335938 C 86.359375 11.679688 86.539062 10.996094 86.628906 10.308594 C 86.570312 11.710938 86.242188 13.113281 85.703125 14.425781 C 85.167969 15.734375 84.453125 16.988281 83.585938 18.121094 C 82.753906 19.253906 81.796875 20.328125 80.785156 21.34375 C 80.277344 21.851562 79.769531 22.328125 79.261719 22.804688 C 78.996094 23.042969 78.726562 23.28125 78.457031 23.519531 L 77.652344 24.207031 C 77.117188 24.652344 76.609375 25.101562 76.101562 25.578125 C 75.832031 25.816406 75.59375 26.054688 75.355469 26.292969 C 75.117188 26.53125 74.847656 26.769531 74.609375 27.007812 C 74.132812 27.515625 73.65625 27.992188 73.210938 28.53125 C 72.730469 29.039062 72.3125 29.574219 71.867188 30.109375 C 70.109375 32.226562 68.585938 34.554688 67.214844 36.941406 C 64.53125 41.742188 62.621094 47.019531 61.636719 52.449219 C 60.59375 57.90625 60.535156 63.511719 61.339844 69.058594 Z M 61.339844 69.058594 " fill-opacity="1" fill-rule="nonzero"/></g><g clip-path="url(#2f39ce4549)"><path fill="#003d20" d="M 106.132812 69.058594 C 106.671875 63.75 106.609375 58.414062 105.894531 53.164062 C 105.507812 50.539062 105.03125 47.945312 104.316406 45.410156 C 103.628906 42.875 102.792969 40.371094 101.75 37.953125 C 100.734375 35.539062 99.542969 33.183594 98.171875 30.917969 C 97.484375 29.78125 96.769531 28.679688 96.023438 27.605469 C 95.277344 26.53125 94.472656 25.457031 93.667969 24.445312 C 92.863281 23.429688 91.96875 22.417969 91.132812 21.34375 C 90.296875 20.269531 89.523438 19.164062 88.835938 18.003906 C 88.179688 16.808594 87.582031 15.585938 87.195312 14.273438 C 86.988281 13.617188 86.867188 12.960938 86.75 12.304688 C 86.6875 11.980469 86.660156 11.652344 86.628906 11.292969 L 86.539062 10.308594 L 86.71875 11.292969 C 86.808594 11.621094 86.867188 11.949219 86.957031 12.277344 C 87.136719 12.902344 87.34375 13.558594 87.582031 14.15625 C 88.0625 15.378906 88.71875 16.542969 89.433594 17.613281 C 90.148438 18.71875 90.984375 19.734375 91.847656 20.746094 C 92.714844 21.761719 93.609375 22.714844 94.503906 23.730469 C 96.292969 25.757812 97.871094 27.933594 99.335938 30.230469 C 100.765625 32.527344 102.019531 34.914062 103.09375 37.417969 C 104.136719 39.921875 105 42.488281 105.65625 45.113281 C 106.3125 47.738281 106.789062 50.390625 107.027344 53.074219 C 107.535156 58.414062 107.265625 63.839844 106.132812 69.058594 Z M 106.132812 69.058594 " fill-opacity="1" fill-rule="nonzero"/></g><path fill="#003d20" d="M 104.046875 36.136719 C 104.316406 35.269531 104.730469 34.464844 105.238281 33.71875 C 105.777344 32.972656 106.402344 32.316406 107.117188 31.722656 C 107.832031 31.15625 108.640625 30.648438 109.472656 30.261719 C 110.339844 29.871094 111.234375 29.632812 112.097656 29.453125 C 113.859375 29.066406 115.558594 28.886719 117.050781 28.261719 C 118.570312 27.664062 119.824219 26.441406 121.164062 25.28125 C 120.746094 26.054688 120.238281 26.800781 119.671875 27.515625 C 119.375 27.875 119.078125 28.203125 118.71875 28.5 C 118.359375 28.796875 117.972656 29.066406 117.554688 29.304688 C 116.75 29.78125 115.855469 30.082031 114.992188 30.320312 C 114.125 30.558594 113.261719 30.707031 112.398438 30.917969 C 111.5625 31.09375 110.757812 31.304688 109.980469 31.574219 C 109.207031 31.871094 108.460938 32.226562 107.773438 32.675781 C 107.058594 33.125 106.402344 33.628906 105.777344 34.226562 C 105.148438 34.761719 104.582031 35.417969 104.046875 36.136719 Z M 104.046875 36.136719 " fill-opacity="1" fill-rule="nonzero"/><path fill="#003d20" d="M 121.375 25.160156 C 120.628906 26.769531 120.417969 28.410156 120.390625 30.082031 C 120.359375 31.75 120.507812 33.421875 120.65625 35.152344 C 120.777344 36.882812 120.808594 38.671875 120.480469 40.460938 C 120.300781 41.355469 120.03125 42.21875 119.644531 43.023438 C 119.226562 43.828125 118.6875 44.574219 118.035156 45.140625 C 118.898438 43.621094 119.257812 41.980469 119.375 40.308594 C 119.496094 38.640625 119.375 36.96875 119.257812 35.269531 C 119.136719 33.539062 119.046875 31.78125 119.316406 29.992188 C 119.433594 29.097656 119.671875 28.230469 120 27.398438 C 120.269531 26.5625 120.746094 25.785156 121.375 25.160156 Z M 121.375 25.160156 " fill-opacity="1" fill-rule="nonzero"/><path fill="#003d20" d="M 110.457031 51.824219 C 113.441406 50.003906 116.304688 48.035156 119.433594 46.394531 C 119.824219 46.1875 120.210938 46.007812 120.628906 45.796875 C 121.015625 45.617188 121.433594 45.410156 121.851562 45.261719 C 122.269531 45.082031 122.6875 44.933594 123.101562 44.753906 C 123.3125 44.664062 123.519531 44.605469 123.730469 44.546875 L 124.058594 44.425781 L 124.386719 44.335938 C 125.25 44.066406 126.144531 43.917969 127.039062 43.828125 C 127.933594 43.710938 128.828125 43.652344 129.722656 43.652344 C 133.304688 43.621094 136.761719 44.21875 140.191406 44.457031 C 141.058594 44.515625 141.921875 44.546875 142.757812 44.574219 C 143.621094 44.574219 144.457031 44.546875 145.320312 44.457031 C 146.1875 44.367188 147.019531 44.21875 147.855469 44.039062 C 148.691406 43.828125 149.496094 43.53125 150.332031 43.203125 C 149.585938 43.679688 148.8125 44.066406 147.976562 44.425781 C 147.140625 44.753906 146.304688 44.992188 145.410156 45.171875 C 143.679688 45.53125 141.890625 45.617188 140.132812 45.589844 C 136.613281 45.53125 133.152344 45.050781 129.722656 45.082031 C 128.859375 45.082031 128.023438 45.113281 127.1875 45.203125 C 126.355469 45.289062 125.519531 45.441406 124.714844 45.648438 L 124.414062 45.707031 L 124.117188 45.796875 C 123.910156 45.859375 123.730469 45.917969 123.519531 45.976562 C 123.101562 46.125 122.714844 46.246094 122.328125 46.394531 C 121.523438 46.691406 120.746094 47.019531 119.941406 47.378906 C 116.78125 48.808594 113.707031 50.511719 110.457031 51.824219 Z M 110.457031 51.824219 " fill-opacity="1" fill-rule="nonzero"/><path fill="#003d20" d="M 150.839844 43.203125 C 149.257812 44.246094 147.945312 45.558594 146.722656 47.019531 C 146.125 47.738281 145.5 48.480469 144.992188 49.199219 C 144.488281 49.945312 144.039062 50.75 143.679688 51.582031 C 142.9375 53.253906 142.367188 55.042969 141.863281 56.832031 C 141.59375 57.726562 141.324219 58.652344 141.058594 59.546875 C 140.789062 60.441406 140.488281 61.367188 140.132812 62.261719 C 139.417969 64.050781 138.550781 65.78125 137.507812 67.417969 C 136.433594 69.03125 135.210938 70.550781 133.71875 71.832031 L 133.152344 72.3125 C 132.976562 72.460938 132.796875 72.640625 132.585938 72.757812 L 131.992188 73.175781 C 131.78125 73.324219 131.601562 73.445312 131.363281 73.5625 L 130.738281 73.921875 L 130.410156 74.101562 C 130.289062 74.160156 130.199219 74.191406 130.082031 74.25 L 129.425781 74.546875 C 129.21875 74.636719 128.976562 74.757812 128.738281 74.816406 C 126.921875 75.472656 124.980469 75.769531 123.101562 75.679688 C 124.980469 75.441406 126.800781 74.964844 128.472656 74.160156 C 130.140625 73.355469 131.632812 72.28125 132.945312 71 C 134.226562 69.714844 135.390625 68.253906 136.316406 66.675781 C 137.269531 65.09375 138.074219 63.453125 138.761719 61.722656 C 139.476562 60.023438 139.953125 58.203125 140.550781 56.414062 C 141.144531 54.625 141.742188 52.777344 142.667969 51.078125 C 143.113281 50.210938 143.621094 49.375 144.246094 48.601562 C 144.875 47.824219 145.53125 47.167969 146.214844 46.484375 C 147.589844 45.203125 149.109375 43.949219 150.839844 43.203125 Z M 150.839844 43.203125 " fill-opacity="1" fill-rule="nonzero"/><path fill="#003d20" d="M 115.378906 76.992188 C 116.871094 76.007812 118.628906 75.414062 120.449219 75.203125 C 122.269531 75.023438 124.117188 75.203125 125.875 75.621094 C 127.667969 76.039062 129.335938 76.695312 131.007812 77.441406 C 132.648438 78.1875 134.226562 79.082031 135.777344 79.945312 C 138.910156 81.765625 141.683594 84.03125 144.574219 86.03125 C 146.007812 87.042969 147.5 87.996094 149.050781 88.773438 C 150.601562 89.578125 152.269531 90.203125 154 90.59375 C 152.210938 90.503906 150.449219 90.054688 148.75 89.429688 C 147.082031 88.773438 145.46875 87.9375 143.949219 86.984375 C 140.878906 85.105469 138.074219 82.957031 135.0625 81.199219 C 133.542969 80.304688 132.019531 79.4375 130.441406 78.664062 C 128.890625 77.886719 127.277344 77.203125 125.609375 76.695312 C 123.96875 76.1875 122.238281 75.859375 120.507812 75.890625 C 118.75 75.917969 117.019531 76.308594 115.378906 76.992188 Z M 115.378906 76.992188 " fill-opacity="1" fill-rule="nonzero"/><path fill="#003d20" d="M 118.898438 103.503906 C 120.507812 103.773438 122.117188 103.714844 123.699219 103.476562 C 125.28125 103.238281 126.832031 102.851562 128.351562 102.402344 C 129.875 101.925781 131.394531 101.417969 132.855469 100.792969 C 134.316406 100.195312 135.777344 99.507812 137.210938 98.765625 C 137.925781 98.40625 138.609375 98.019531 139.296875 97.601562 C 139.65625 97.390625 139.984375 97.183594 140.339844 97.003906 C 140.667969 96.796875 140.996094 96.585938 141.324219 96.378906 C 142.636719 95.511719 143.917969 94.5 145.292969 93.605469 C 145.976562 93.15625 146.664062 92.710938 147.410156 92.292969 C 148.125 91.90625 148.898438 91.546875 149.675781 91.277344 C 150.480469 91.011719 151.285156 90.832031 152.121094 90.769531 C 152.957031 90.710938 153.792969 90.832031 154.566406 91.070312 C 153.761719 90.980469 152.957031 91.011719 152.179688 91.160156 C 151.40625 91.339844 150.660156 91.578125 149.945312 91.933594 C 148.511719 92.621094 147.230469 93.542969 145.949219 94.527344 L 144.039062 96.019531 C 143.414062 96.527344 142.757812 97.035156 142.070312 97.511719 C 141.742188 97.75 141.386719 97.988281 141.027344 98.195312 C 140.667969 98.40625 140.339844 98.644531 139.984375 98.851562 C 139.265625 99.269531 138.550781 99.660156 137.835938 100.046875 C 136.375 100.792969 134.855469 101.476562 133.332031 102.074219 C 131.78125 102.640625 130.199219 103.148438 128.589844 103.503906 C 126.980469 103.863281 125.371094 104.132812 123.699219 104.222656 C 122.117188 104.25 120.449219 104.074219 118.898438 103.503906 Z M 118.898438 103.503906 " fill-opacity="1" fill-rule="nonzero"/><path fill="#003d20" d="M 138.9375 69.328125 C 139.265625 69.058594 139.65625 68.851562 140.042969 68.671875 C 140.429688 68.492188 140.847656 68.375 141.265625 68.253906 C 142.101562 68.046875 142.964844 67.988281 143.832031 68.015625 C 145.558594 68.074219 147.261719 68.613281 148.78125 69.296875 C 149.554688 69.65625 150.300781 70.042969 151.019531 70.433594 C 151.734375 70.847656 152.449219 71.265625 153.164062 71.683594 C 153.851562 72.101562 154.566406 72.578125 155.253906 73.027344 C 155.582031 73.234375 155.9375 73.445312 156.296875 73.5625 C 156.652344 73.683594 157.042969 73.742188 157.460938 73.621094 C 157.308594 73.742188 157.101562 73.832031 156.894531 73.890625 C 156.683594 73.949219 156.445312 73.949219 156.238281 73.949219 C 155.789062 73.921875 155.371094 73.800781 154.953125 73.652344 C 154.148438 73.355469 153.402344 73.027344 152.65625 72.699219 C 151.136719 72.042969 149.675781 71.265625 148.214844 70.609375 C 146.753906 69.953125 145.292969 69.386719 143.742188 69.121094 C 142.128906 68.882812 140.550781 68.882812 138.9375 69.328125 Z M 138.9375 69.328125 " fill-opacity="1" fill-rule="nonzero"/><path fill="#003d20" d="M 141.953125 81.496094 C 143.503906 81.226562 145.054688 81.109375 146.277344 80.480469 C 146.902344 80.183594 147.4375 79.738281 148.003906 79.257812 C 148.273438 79.019531 148.570312 78.753906 148.839844 78.515625 L 149.707031 77.738281 C 150.273438 77.230469 150.867188 76.722656 151.464844 76.246094 C 151.761719 76.007812 152.0625 75.769531 152.359375 75.53125 C 152.65625 75.292969 152.984375 75.054688 153.34375 74.816406 C 153.703125 74.605469 154.058594 74.398438 154.476562 74.25 C 154.894531 74.101562 155.28125 74.039062 155.671875 73.980469 C 156.058594 73.921875 156.445312 73.890625 156.804688 73.832031 C 157.160156 73.773438 157.519531 73.652344 157.847656 73.445312 C 157.757812 73.621094 157.609375 73.773438 157.460938 73.890625 C 157.308594 74.011719 157.132812 74.128906 156.953125 74.21875 C 156.59375 74.398438 156.207031 74.546875 155.847656 74.695312 C 155.492188 74.847656 155.164062 74.964844 154.863281 75.144531 C 154.566406 75.324219 154.296875 75.53125 154.03125 75.769531 C 153.492188 76.246094 152.957031 76.785156 152.390625 77.320312 C 151.824219 77.859375 151.257812 78.363281 150.691406 78.871094 C 150.09375 79.378906 149.527344 79.886719 148.898438 80.363281 C 148.273438 80.839844 147.558594 81.316406 146.722656 81.585938 C 145.917969 81.855469 145.082031 81.914062 144.277344 81.882812 C 143.503906 81.792969 142.726562 81.675781 141.953125 81.496094 Z M 141.953125 81.496094 " fill-opacity="1" fill-rule="nonzero"/><path fill="#003d20" d="M 64.351562 36.136719 C 63.816406 35.417969 63.25 34.761719 62.621094 34.195312 C 61.996094 33.628906 61.339844 33.09375 60.625 32.644531 C 59.90625 32.199219 59.164062 31.839844 58.417969 31.542969 C 57.640625 31.273438 56.835938 31.066406 56 30.886719 C 55.167969 30.707031 54.300781 30.527344 53.40625 30.289062 C 52.542969 30.050781 51.648438 29.753906 50.839844 29.277344 C 50.425781 29.039062 50.035156 28.769531 49.679688 28.472656 C 49.320312 28.171875 49.023438 27.84375 48.722656 27.488281 C 48.15625 26.769531 47.652344 26.054688 47.234375 25.25 C 48.574219 26.414062 49.828125 27.664062 51.347656 28.230469 C 52.871094 28.859375 54.570312 29.039062 56.300781 29.425781 C 57.164062 29.605469 58.058594 29.871094 58.921875 30.230469 C 59.789062 30.617188 60.5625 31.09375 61.28125 31.691406 C 61.996094 32.289062 62.621094 32.945312 63.160156 33.691406 C 63.664062 34.464844 64.082031 35.269531 64.351562 36.136719 Z M 64.351562 36.136719 " fill-opacity="1" fill-rule="nonzero"/><path fill="#003d20" d="M 47.023438 25.160156 C 47.652344 25.785156 48.128906 26.5625 48.457031 27.398438 C 48.8125 28.230469 49.023438 29.097656 49.140625 29.992188 C 49.410156 31.78125 49.320312 33.539062 49.203125 35.269531 C 49.082031 36.96875 48.960938 38.671875 49.082031 40.308594 C 49.203125 41.980469 49.53125 43.589844 50.425781 45.140625 C 49.738281 44.574219 49.203125 43.828125 48.8125 43.023438 C 48.394531 42.21875 48.15625 41.355469 47.980469 40.460938 C 47.652344 38.699219 47.679688 36.910156 47.800781 35.152344 C 47.917969 33.421875 48.097656 31.75 48.066406 30.082031 C 47.980469 28.410156 47.769531 26.742188 47.023438 25.160156 Z M 47.023438 25.160156 " fill-opacity="1" fill-rule="nonzero"/><path fill="#003d20" d="M 57.941406 51.824219 C 54.6875 50.539062 51.617188 48.808594 48.484375 47.410156 C 47.710938 47.050781 46.90625 46.722656 46.101562 46.425781 C 45.710938 46.273438 45.292969 46.125 44.90625 46.007812 C 44.699219 45.945312 44.519531 45.886719 44.308594 45.828125 L 44.011719 45.738281 L 43.714844 45.679688 C 42.910156 45.46875 42.074219 45.320312 41.238281 45.230469 C 40.402344 45.140625 39.570312 45.113281 38.703125 45.113281 C 35.304688 45.082031 31.84375 45.558594 28.296875 45.617188 C 26.535156 45.648438 24.746094 45.53125 23.015625 45.203125 C 22.152344 45.023438 21.285156 44.785156 20.453125 44.457031 C 19.617188 44.128906 18.839844 43.710938 18.097656 43.234375 C 18.902344 43.5625 19.734375 43.859375 20.570312 44.066406 C 21.40625 44.277344 22.242188 44.425781 23.105469 44.484375 C 23.972656 44.574219 24.804688 44.605469 25.671875 44.605469 C 26.535156 44.605469 27.371094 44.574219 28.234375 44.484375 C 31.664062 44.246094 35.125 43.652344 38.703125 43.679688 C 39.597656 43.679688 40.492188 43.738281 41.386719 43.859375 C 42.28125 43.980469 43.175781 44.128906 44.042969 44.367188 L 44.371094 44.457031 L 44.699219 44.574219 C 44.90625 44.664062 45.144531 44.722656 45.324219 44.785156 C 45.742188 44.933594 46.160156 45.113281 46.578125 45.289062 C 46.996094 45.46875 47.382812 45.648438 47.800781 45.828125 C 48.1875 46.035156 48.605469 46.214844 48.992188 46.425781 C 52.09375 48.003906 54.957031 49.972656 57.941406 51.824219 Z M 57.941406 51.824219 " fill-opacity="1" fill-rule="nonzero"/><path fill="#003d20" d="M 17.527344 43.203125 C 19.289062 43.949219 20.78125 45.203125 22.152344 46.515625 C 22.835938 47.199219 23.492188 47.855469 24.121094 48.632812 C 24.746094 49.40625 25.222656 50.242188 25.699219 51.105469 C 26.59375 52.835938 27.222656 54.65625 27.816406 56.445312 C 28.414062 58.234375 28.890625 60.054688 29.609375 61.753906 C 30.292969 63.484375 31.097656 65.125 32.054688 66.703125 C 33.007812 68.285156 34.140625 69.714844 35.421875 71.027344 C 36.734375 72.3125 38.226562 73.382812 39.898438 74.191406 C 41.566406 74.996094 43.386719 75.472656 45.265625 75.710938 C 43.386719 75.800781 41.449219 75.5 39.628906 74.847656 C 39.390625 74.785156 39.179688 74.667969 38.941406 74.578125 L 38.285156 74.277344 C 38.167969 74.21875 38.046875 74.191406 37.957031 74.128906 L 37.628906 73.949219 L 37.003906 73.59375 C 36.796875 73.472656 36.585938 73.355469 36.378906 73.207031 L 35.78125 72.789062 C 35.574219 72.667969 35.394531 72.488281 35.214844 72.339844 L 34.648438 71.863281 C 33.15625 70.582031 31.933594 69.058594 30.859375 67.449219 C 29.816406 65.839844 28.953125 64.078125 28.234375 62.289062 C 27.878906 61.394531 27.578125 60.472656 27.3125 59.578125 C 27.042969 58.652344 26.773438 57.757812 26.507812 56.863281 C 26 55.042969 25.433594 53.285156 24.6875 51.613281 C 24.300781 50.777344 23.882812 49.972656 23.375 49.226562 C 22.867188 48.480469 22.242188 47.765625 21.644531 47.050781 C 20.453125 45.558594 19.140625 44.21875 17.527344 43.203125 Z M 17.527344 43.203125 " fill-opacity="1" fill-rule="nonzero"/><path fill="#003d20" d="M 53.019531 76.992188 C 51.378906 76.277344 49.648438 75.917969 47.917969 75.917969 C 46.1875 75.890625 44.488281 76.21875 42.820312 76.722656 C 41.179688 77.230469 39.570312 77.917969 37.988281 78.691406 C 36.40625 79.46875 34.886719 80.332031 33.367188 81.226562 C 30.351562 82.988281 27.519531 85.132812 24.476562 87.011719 C 22.957031 87.9375 21.347656 88.804688 19.675781 89.460938 C 18.007812 90.113281 16.21875 90.53125 14.425781 90.621094 C 16.15625 90.203125 17.828125 89.609375 19.378906 88.804688 C 20.929688 88.027344 22.421875 87.074219 23.851562 86.058594 C 26.746094 84.0625 29.519531 81.792969 32.648438 79.976562 C 34.199219 79.082031 35.78125 78.214844 37.421875 77.46875 C 39.0625 76.722656 40.761719 76.070312 42.550781 75.652344 C 44.308594 75.234375 46.160156 75.023438 47.980469 75.234375 C 49.769531 75.414062 51.527344 76.007812 53.019531 76.992188 Z M 53.019531 76.992188 " fill-opacity="1" fill-rule="nonzero"/><path fill="#003d20" d="M 49.46875 103.503906 C 47.949219 104.074219 46.25 104.25 44.609375 104.191406 C 42.9375 104.132812 41.328125 103.863281 39.71875 103.476562 C 38.105469 103.117188 36.527344 102.609375 34.976562 102.042969 C 33.425781 101.449219 31.933594 100.792969 30.472656 100.015625 C 29.757812 99.628906 29.011719 99.242188 28.324219 98.824219 C 27.96875 98.613281 27.609375 98.40625 27.28125 98.167969 C 26.921875 97.957031 26.566406 97.71875 26.238281 97.480469 C 25.550781 97.003906 24.925781 96.496094 24.269531 95.992188 L 22.359375 94.5 C 21.078125 93.515625 19.796875 92.589844 18.363281 91.90625 C 17.648438 91.546875 16.902344 91.308594 16.128906 91.128906 C 15.351562 90.980469 14.546875 90.949219 13.742188 91.039062 C 14.515625 90.800781 15.351562 90.683594 16.1875 90.742188 C 17.023438 90.800781 17.855469 90.980469 18.632812 91.25 C 19.40625 91.515625 20.183594 91.875 20.898438 92.261719 C 21.613281 92.648438 22.332031 93.097656 23.015625 93.574219 C 24.386719 94.46875 25.671875 95.484375 26.984375 96.347656 C 27.3125 96.558594 27.640625 96.765625 27.96875 96.972656 C 28.324219 97.183594 28.652344 97.390625 29.011719 97.570312 C 29.695312 97.988281 30.414062 98.347656 31.097656 98.734375 C 32.5 99.480469 33.960938 100.136719 35.453125 100.761719 C 36.914062 101.386719 38.433594 101.894531 39.957031 102.371094 C 41.476562 102.820312 43.058594 103.238281 44.609375 103.445312 C 46.25 103.714844 47.859375 103.773438 49.46875 103.503906 Z M 49.46875 103.503906 " fill-opacity="1" fill-rule="nonzero"/><path fill="#003d20" d="M 29.457031 69.328125 C 27.847656 68.851562 26.238281 68.882812 24.714844 69.148438 C 23.164062 69.417969 21.703125 69.984375 20.242188 70.640625 C 18.78125 71.296875 17.320312 72.070312 15.800781 72.726562 C 15.054688 73.054688 14.308594 73.382812 13.503906 73.683594 C 13.085938 73.832031 12.667969 73.949219 12.222656 73.980469 C 12.011719 73.980469 11.773438 73.980469 11.566406 73.921875 C 11.355469 73.863281 11.148438 73.773438 10.996094 73.652344 C 11.414062 73.773438 11.804688 73.710938 12.160156 73.59375 C 12.519531 73.472656 12.875 73.265625 13.203125 73.054688 C 13.890625 72.609375 14.578125 72.160156 15.292969 71.714844 C 16.007812 71.296875 16.695312 70.878906 17.441406 70.460938 C 18.15625 70.042969 18.902344 69.65625 19.675781 69.328125 C 21.199219 68.640625 22.898438 68.105469 24.628906 68.046875 C 25.492188 68.015625 26.355469 68.074219 27.191406 68.285156 C 27.609375 68.402344 28.027344 68.523438 28.414062 68.703125 C 28.742188 68.882812 29.128906 69.089844 29.457031 69.328125 Z M 29.457031 69.328125 " fill-opacity="1" fill-rule="nonzero"/><path fill="#003d20" d="M 26.417969 81.496094 C 25.640625 81.675781 24.894531 81.792969 24.089844 81.824219 C 23.285156 81.855469 22.480469 81.792969 21.644531 81.527344 C 20.839844 81.257812 20.125 80.808594 19.46875 80.304688 C 18.839844 79.796875 18.273438 79.320312 17.679688 78.8125 C 17.113281 78.304688 16.515625 77.796875 15.976562 77.261719 C 15.410156 76.753906 14.875 76.1875 14.339844 75.710938 C 14.070312 75.472656 13.773438 75.261719 13.503906 75.085938 C 13.203125 74.90625 12.875 74.785156 12.519531 74.636719 C 12.160156 74.488281 11.773438 74.367188 11.414062 74.160156 C 11.238281 74.070312 11.058594 73.949219 10.910156 73.832031 C 10.757812 73.710938 10.609375 73.5625 10.519531 73.382812 C 10.847656 73.621094 11.207031 73.710938 11.566406 73.773438 C 11.921875 73.832031 12.308594 73.890625 12.699219 73.921875 C 13.085938 73.980469 13.503906 74.039062 13.890625 74.191406 C 14.277344 74.339844 14.667969 74.546875 15.023438 74.757812 C 15.382812 74.964844 15.679688 75.234375 16.007812 75.472656 C 16.304688 75.710938 16.605469 75.949219 16.902344 76.1875 C 17.5 76.664062 18.097656 77.171875 18.664062 77.679688 L 19.527344 78.453125 C 19.824219 78.722656 20.09375 78.960938 20.363281 79.199219 C 20.929688 79.675781 21.464844 80.125 22.09375 80.421875 C 23.34375 81.109375 24.894531 81.257812 26.417969 81.496094 Z M 26.417969 81.496094 " fill-opacity="1" fill-rule="nonzero"/><path fill="#003d20" d="M 83.46875 89.308594 C 82.304688 88.890625 81.203125 88.414062 80.097656 87.878906 C 78.996094 87.339844 77.949219 86.746094 76.878906 86.148438 C 75.804688 85.550781 74.730469 84.984375 73.625 84.507812 C 72.523438 84.03125 71.390625 83.613281 70.226562 83.285156 C 69.0625 82.957031 67.902344 82.6875 66.707031 82.570312 C 65.515625 82.449219 64.320312 82.511719 63.1875 82.808594 C 62.054688 83.105469 61.011719 83.644531 60.175781 84.390625 C 59.339844 85.164062 58.714844 86.179688 58.445312 87.253906 C 58.179688 88.324219 58.269531 89.488281 58.773438 90.472656 C 59.011719 90.949219 59.371094 91.367188 59.789062 91.753906 C 60.207031 92.113281 60.683594 92.441406 61.191406 92.679688 C 62.203125 93.1875 63.367188 93.484375 64.53125 93.722656 C 65.695312 93.933594 66.886719 94.113281 68.078125 94.140625 C 70.464844 94.230469 72.851562 94.023438 75.207031 93.542969 C 77.5625 93.097656 79.859375 92.382812 82.097656 91.488281 C 84.304688 90.59375 86.390625 89.371094 88.480469 88.117188 C 90.566406 86.863281 92.652344 85.550781 94.921875 84.539062 C 96.054688 84.03125 97.214844 83.582031 98.441406 83.285156 C 99.664062 82.988281 100.972656 82.839844 102.257812 82.957031 C 103.539062 83.078125 104.820312 83.464844 105.925781 84.121094 C 107.027344 84.777344 108.011719 85.640625 108.757812 86.746094 C 109.117188 87.28125 109.414062 87.878906 109.59375 88.503906 C 109.773438 89.132812 109.863281 89.816406 109.773438 90.472656 C 109.710938 91.128906 109.503906 91.785156 109.144531 92.351562 C 108.816406 92.917969 108.371094 93.425781 107.921875 93.871094 C 107 94.738281 105.835938 95.394531 104.613281 95.722656 C 103.390625 96.050781 102.109375 96.109375 100.855469 95.992188 C 99.601562 95.871094 98.410156 95.601562 97.214844 95.246094 C 96.023438 94.886719 94.890625 94.46875 93.757812 94.050781 C 92.625 93.605469 91.492188 93.128906 90.355469 92.679688 C 89.222656 92.203125 88.089844 91.753906 86.925781 91.398438 C 89.285156 91.992188 91.550781 92.949219 93.847656 93.753906 C 96.144531 94.527344 98.5 95.246094 100.886719 95.394531 C 102.078125 95.453125 103.269531 95.394531 104.402344 95.066406 C 105.507812 94.738281 106.550781 94.140625 107.355469 93.304688 C 107.773438 92.890625 108.132812 92.472656 108.398438 91.964844 C 108.667969 91.488281 108.816406 90.949219 108.878906 90.382812 C 108.96875 89.28125 108.578125 88.175781 107.953125 87.253906 C 107.296875 86.328125 106.402344 85.550781 105.417969 84.984375 C 104.433594 84.417969 103.300781 84.089844 102.167969 84 C 101.035156 83.910156 99.839844 84.03125 98.738281 84.328125 C 97.605469 84.628906 96.5 85.074219 95.398438 85.550781 C 93.21875 86.566406 91.164062 87.847656 89.105469 89.101562 C 87.015625 90.382812 84.898438 91.636719 82.574219 92.589844 C 80.277344 93.484375 77.890625 94.230469 75.476562 94.679688 C 73.03125 95.15625 70.554688 95.363281 68.050781 95.246094 C 66.796875 95.183594 65.574219 95.007812 64.351562 94.769531 C 63.128906 94.5 61.90625 94.171875 60.742188 93.574219 C 60.175781 93.277344 59.609375 92.917969 59.132812 92.472656 C 58.65625 92.023438 58.207031 91.488281 57.910156 90.890625 C 57.285156 89.667969 57.222656 88.238281 57.582031 86.984375 C 57.941406 85.703125 58.65625 84.566406 59.640625 83.703125 C 60.625 82.839844 61.816406 82.273438 63.070312 82.003906 C 64.320312 81.734375 65.605469 81.703125 66.828125 81.855469 C 68.078125 82.003906 69.273438 82.300781 70.433594 82.6875 C 71.597656 83.078125 72.761719 83.523438 73.863281 84.0625 C 74.96875 84.597656 76.042969 85.222656 77.085938 85.851562 C 79.113281 87.101562 81.203125 88.386719 83.46875 89.308594 Z M 83.46875 89.308594 " fill-opacity="1" fill-rule="nonzero"/><path fill="#003d20" d="M 132.46875 32.140625 C 132.558594 32.167969 132.648438 32.199219 132.734375 32.199219 C 133.628906 32.378906 134.285156 32.675781 134.464844 33.273438 C 134.585938 33.601562 134.675781 33.867188 134.613281 34.40625 C 134.585938 34.554688 135.03125 34.523438 135.03125 34.375 C 135.03125 34.226562 135.03125 34.105469 135.0625 33.957031 C 135.242188 33.183594 135.777344 32.378906 136.972656 32.078125 C 137.089844 32.050781 137.238281 32.019531 137.238281 31.960938 C 137.238281 31.839844 137.058594 31.871094 136.941406 31.839844 C 135.835938 31.574219 135.152344 30.976562 134.972656 30.230469 C 134.941406 30.109375 135.03125 29.574219 134.792969 29.542969 C 134.464844 29.484375 134.585938 30.050781 134.585938 30.140625 C 134.585938 30.527344 134.464844 30.886719 134.136719 31.183594 C 133.75 31.542969 133.273438 31.839844 132.617188 31.988281 C 132.558594 31.988281 132.496094 32.019531 132.46875 32.050781 C 132.378906 32.019531 132.378906 32.109375 132.46875 32.140625 Z M 132.46875 32.140625 " fill-opacity="1" fill-rule="nonzero"/><path fill="#003d20" d="M 153.222656 60.320312 C 153.3125 60.351562 153.402344 60.382812 153.492188 60.382812 C 154.386719 60.558594 155.042969 60.859375 155.222656 61.457031 C 155.34375 61.78125 155.429688 62.050781 155.371094 62.589844 C 155.34375 62.738281 155.789062 62.707031 155.789062 62.558594 C 155.789062 62.410156 155.789062 62.289062 155.820312 62.140625 C 156 61.367188 156.535156 60.558594 157.726562 60.261719 C 157.847656 60.230469 157.996094 60.203125 157.996094 60.144531 C 157.996094 60.023438 157.816406 60.054688 157.699219 60.023438 C 156.59375 59.753906 155.910156 59.160156 155.730469 58.414062 C 155.699219 58.292969 155.789062 57.757812 155.550781 57.726562 C 155.222656 57.667969 155.34375 58.234375 155.34375 58.324219 C 155.34375 58.710938 155.222656 59.070312 154.894531 59.367188 C 154.507812 59.726562 154.03125 60.023438 153.375 60.171875 C 153.3125 60.171875 153.253906 60.203125 153.222656 60.230469 C 153.164062 60.230469 153.164062 60.292969 153.222656 60.320312 Z M 153.222656 60.320312 " fill-opacity="1" fill-rule="nonzero"/><path fill="#003d20" d="M 61.519531 17.792969 C 61.609375 17.824219 61.699219 17.855469 61.785156 17.855469 C 62.679688 18.03125 63.335938 18.332031 63.515625 18.925781 C 63.636719 19.253906 63.726562 19.523438 63.664062 20.0625 C 63.636719 20.210938 64.082031 20.179688 64.082031 20.03125 C 64.082031 19.882812 64.082031 19.761719 64.113281 19.613281 C 64.292969 18.835938 64.828125 18.03125 66.023438 17.734375 C 66.140625 17.703125 66.289062 17.675781 66.289062 17.613281 C 66.289062 17.496094 66.109375 17.527344 65.992188 17.496094 C 64.886719 17.226562 64.203125 16.632812 64.023438 15.886719 C 63.992188 15.765625 64.082031 15.230469 63.84375 15.199219 C 63.515625 15.140625 63.636719 15.707031 63.636719 15.796875 C 63.636719 16.183594 63.515625 16.542969 63.1875 16.839844 C 62.800781 17.199219 62.324219 17.496094 61.667969 17.644531 C 61.609375 17.644531 61.546875 17.675781 61.519531 17.703125 C 61.429688 17.703125 61.429688 17.765625 61.519531 17.792969 Z M 61.519531 17.792969 " fill-opacity="1" fill-rule="nonzero"/><path fill="#003d20" d="M 12.699219 57.371094 C 12.789062 57.398438 12.875 57.429688 12.964844 57.429688 C 13.859375 57.609375 14.515625 57.90625 14.695312 58.503906 C 14.816406 58.832031 14.90625 59.097656 14.84375 59.636719 C 14.816406 59.785156 15.261719 59.753906 15.261719 59.605469 C 15.261719 59.457031 15.261719 59.335938 15.292969 59.1875 C 15.472656 58.414062 16.007812 57.609375 17.203125 57.308594 C 17.320312 57.28125 17.46875 57.25 17.46875 57.191406 C 17.46875 57.070312 17.289062 57.101562 17.171875 57.070312 C 16.066406 56.804688 15.382812 56.207031 15.203125 55.460938 C 15.171875 55.339844 15.261719 54.804688 15.023438 54.773438 C 14.695312 54.714844 14.816406 55.28125 14.816406 55.371094 C 14.816406 55.757812 14.695312 56.117188 14.367188 56.414062 C 13.980469 56.773438 13.503906 57.070312 12.847656 57.21875 C 12.789062 57.21875 12.726562 57.25 12.699219 57.28125 C 12.636719 57.25 12.636719 57.339844 12.699219 57.371094 Z M 12.699219 57.371094 " fill-opacity="1" fill-rule="nonzero"/><path fill="#003d20" d="M 104.644531 17.855469 C 106.195312 17.855469 106.195312 15.4375 104.644531 15.4375 C 103.0625 15.4375 103.0625 17.855469 104.644531 17.855469 Z M 104.644531 17.855469 " fill-opacity="1" fill-rule="nonzero"/><path fill="#003d20" d="M 34.855469 33.691406 C 36.40625 33.691406 36.40625 31.273438 34.855469 31.273438 C 33.304688 31.273438 33.304688 33.691406 34.855469 33.691406 Z M 34.855469 33.691406 " fill-opacity="1" fill-rule="nonzero"/><path fill="#003d20" d="M 149.675781 103.503906 C 149.675781 103.503906 149.644531 103.503906 149.644531 103.503906 C 148.09375 103.503906 148.09375 105.921875 149.644531 105.921875 C 149.675781 105.921875 149.707031 105.921875 149.707031 105.921875 C 151.257812 105.921875 151.257812 103.503906 149.707031 103.503906 C 149.675781 103.503906 149.675781 103.503906 149.675781 103.503906 C 148.125 103.503906 148.125 105.921875 149.675781 105.921875 C 149.675781 105.921875 149.707031 105.921875 149.707031 105.921875 C 151.257812 105.921875 151.257812 103.503906 149.707031 103.503906 C 149.675781 103.503906 149.644531 103.503906 149.644531 103.503906 C 148.09375 103.503906 148.09375 105.921875 149.644531 105.921875 C 149.644531 105.921875 149.675781 105.921875 149.675781 105.921875 C 151.226562 105.921875 151.226562 103.503906 149.675781 103.503906 Z M 149.675781 103.503906 " fill-opacity="1" fill-rule="nonzero"/><path fill="#003d20" d="M 13.859375 104.222656 C 13.859375 104.222656 13.859375 104.25 13.859375 104.25 C 13.859375 105.800781 16.277344 105.800781 16.277344 104.25 C 16.277344 104.222656 16.277344 104.191406 16.277344 104.191406 C 16.277344 102.640625 13.859375 102.640625 13.859375 104.191406 C 13.859375 104.191406 13.859375 104.222656 13.859375 104.222656 C 13.859375 105.773438 16.277344 105.773438 16.277344 104.222656 C 16.277344 104.222656 16.277344 104.191406 16.277344 104.191406 C 16.277344 102.640625 13.859375 102.640625 13.859375 104.191406 C 13.859375 104.222656 13.859375 104.25 13.859375 104.25 C 13.859375 105.800781 16.277344 105.800781 16.277344 104.25 C 16.277344 104.25 16.277344 104.222656 16.277344 104.222656 C 16.277344 102.671875 13.859375 102.671875 13.859375 104.222656 Z M 13.859375 104.222656 " fill-opacity="1" fill-rule="nonzero"/><g clip-path="url(#7f94be11c8)"><path fill="#003d20" d="M 157.222656 84.121094 C 158.382812 84.121094 158.382812 82.300781 157.222656 82.300781 C 156.027344 82.300781 156.027344 84.121094 157.222656 84.121094 Z M 157.222656 84.121094 " fill-opacity="1" fill-rule="nonzero"/></g><g clip-path="url(#d4b4c42729)"><path fill="#003d20" d="M 9.863281 84.835938 C 9.984375 84.835938 10.101562 84.835938 10.222656 84.835938 C 10.460938 84.835938 10.699219 84.746094 10.878906 84.566406 C 11.027344 84.417969 11.148438 84.152344 11.148438 83.910156 C 11.148438 83.671875 11.058594 83.433594 10.878906 83.257812 C 10.699219 83.105469 10.492188 82.988281 10.222656 82.988281 C 10.101562 82.988281 9.984375 82.988281 9.863281 82.988281 C 9.625 82.988281 9.386719 83.078125 9.207031 83.257812 C 9.058594 83.40625 8.941406 83.671875 8.941406 83.910156 C 8.941406 84.152344 9.03125 84.390625 9.207031 84.566406 C 9.417969 84.746094 9.625 84.835938 9.863281 84.835938 Z M 9.863281 84.835938 " fill-opacity="1" fill-rule="nonzero"/></g><path fill="#003d20" d="M 133.78125 115.613281 C 133.78125 115.585938 133.78125 115.554688 133.78125 115.554688 C 133.78125 114.390625 131.960938 114.390625 131.960938 115.554688 C 131.960938 115.613281 131.960938 115.644531 131.960938 115.703125 C 131.960938 116.867188 133.78125 116.867188 133.78125 115.703125 C 133.78125 115.671875 133.78125 115.644531 133.78125 115.613281 C 133.78125 114.449219 131.960938 114.449219 131.960938 115.613281 C 131.960938 115.644531 131.960938 115.671875 131.960938 115.671875 C 131.960938 116.835938 133.78125 116.835938 133.78125 115.671875 C 133.78125 115.613281 133.78125 115.585938 133.78125 115.523438 C 133.78125 114.363281 131.960938 114.363281 131.960938 115.523438 C 131.960938 115.554688 131.960938 115.585938 131.960938 115.585938 C 131.960938 116.777344 133.78125 116.777344 133.78125 115.613281 Z M 133.78125 115.613281 " fill-opacity="1" fill-rule="nonzero"/><path fill="#003d20" d="M 31.128906 115.015625 C 31.128906 115.015625 31.160156 115.046875 31.128906 115.015625 C 31.992188 115.882812 33.277344 114.601562 32.441406 113.765625 C 32.410156 113.734375 32.410156 113.734375 32.382812 113.707031 C 31.574219 112.871094 30.265625 114.152344 31.128906 115.015625 C 31.097656 114.988281 31.128906 115.015625 31.128906 115.015625 C 31.964844 115.851562 33.246094 114.570312 32.410156 113.734375 C 32.410156 113.734375 32.382812 113.707031 32.382812 113.707031 C 31.574219 112.871094 30.265625 114.152344 31.128906 115.015625 C 31.992188 115.882812 33.277344 114.601562 32.441406 113.765625 C 32.441406 113.765625 32.410156 113.734375 32.410156 113.734375 C 31.574219 112.898438 30.292969 114.183594 31.128906 115.015625 Z M 31.128906 115.015625 " fill-opacity="1" fill-rule="nonzero"/><g clip-path="url(#bb4a95df77)"><path fill="#003d20" d="M 82.304688 121.28125 C 82.394531 121.308594 82.484375 121.339844 82.574219 121.339844 C 83.46875 121.519531 84.125 121.816406 84.304688 122.414062 C 84.421875 122.742188 84.511719 123.011719 84.453125 123.546875 C 84.421875 123.695312 84.871094 123.667969 84.871094 123.515625 C 84.871094 123.367188 84.871094 123.25 84.898438 123.097656 C 85.078125 122.324219 85.617188 121.519531 86.808594 121.222656 C 86.929688 121.191406 87.078125 121.160156 87.078125 121.101562 C 87.078125 120.980469 86.898438 121.011719 86.777344 120.980469 C 85.675781 120.714844 84.988281 120.117188 84.808594 119.371094 C 84.78125 119.253906 84.871094 118.714844 84.632812 118.6875 C 84.304688 118.625 84.421875 119.191406 84.421875 119.28125 C 84.421875 119.671875 84.304688 120.027344 83.976562 120.324219 C 83.585938 120.683594 83.109375 120.980469 82.453125 121.132812 C 82.394531 121.132812 82.335938 121.160156 82.304688 121.191406 C 82.246094 121.191406 82.246094 121.25 82.304688 121.28125 Z M 82.304688 121.28125 " fill-opacity="1" fill-rule="nonzero"/></g><path fill="#003d20" d="M 99.8125 111.648438 C 100.972656 111.648438 100.972656 109.828125 99.8125 109.828125 C 98.648438 109.828125 98.648438 111.648438 99.8125 111.648438 Z M 99.8125 111.648438 " fill-opacity="1" fill-rule="nonzero"/><path fill="#003d20" d="M 67.246094 111.648438 C 68.40625 111.648438 68.40625 109.828125 67.246094 109.828125 C 66.050781 109.828125 66.050781 111.648438 67.246094 111.648438 Z M 67.246094 111.648438 " fill-opacity="1" fill-rule="nonzero"/><path fill="#003d20" d="M 50.425781 122.054688 C 51.585938 122.054688 51.585938 120.238281 50.425781 120.238281 C 49.261719 120.238281 49.230469 122.054688 50.425781 122.054688 Z M 50.425781 122.054688 " fill-opacity="1" fill-rule="nonzero"/><g clip-path="url(#7a78925f64)"><path fill="#003d20" d="M 114.363281 123.546875 C 115.527344 123.546875 115.527344 121.726562 114.363281 121.726562 C 113.203125 121.726562 113.203125 123.546875 114.363281 123.546875 Z M 114.363281 123.546875 " fill-opacity="1" fill-rule="nonzero"/></g><g transform="matrix(1, 0, 0, 1, 165, 70)"><g clip-path="url(#e6fba95ff2)"><g fill="#003d20" fill-opacity="1"><g transform="translate(0.744489, 33.988441)"><g><path d="M 1.9375 0 L 1.9375 -0.578125 C 2.625 -0.796875 3.066406 -1.253906 3.265625 -1.953125 C 3.472656 -2.660156 3.578125 -3.753906 3.578125 -5.234375 L 3.578125 -23.609375 C 3.578125 -25.085938 3.472656 -26.175781 3.265625 -26.875 C 3.066406 -27.582031 2.625 -28.046875 1.9375 -28.265625 L 1.9375 -28.84375 L 9.59375 -28.84375 L 9.59375 -28.265625 C 8.90625 -28.046875 8.457031 -27.582031 8.25 -26.875 C 8.050781 -26.175781 7.953125 -25.085938 7.953125 -23.609375 L 7.953125 -5.234375 C 7.953125 -3.753906 8.050781 -2.660156 8.25 -1.953125 C 8.457031 -1.253906 8.90625 -0.796875 9.59375 -0.578125 L 9.59375 0 Z M 1.9375 0 "/></g></g></g><g fill="#003d20" fill-opacity="1"><g transform="translate(13.269554, 33.988441)"><g><path d="M 23.65625 0.328125 L 4.328125 -24.0625 L 4.328125 -7.703125 C 4.328125 -6.023438 4.4375 -4.707031 4.65625 -3.75 C 4.875 -2.789062 5.21875 -2.078125 5.6875 -1.609375 C 6.15625 -1.140625 6.742188 -0.796875 7.453125 -0.578125 L 7.453125 0 L 1.9375 0 L 1.9375 -0.578125 C 2.625 -0.796875 3.066406 -1.253906 3.265625 -1.953125 C 3.472656 -2.660156 3.578125 -3.753906 3.578125 -5.234375 L 3.578125 -23.609375 C 3.578125 -25.085938 3.441406 -26.175781 3.171875 -26.875 C 2.898438 -27.582031 2.320312 -28.046875 1.4375 -28.265625 L 1.4375 -28.84375 L 6.09375 -28.84375 L 23.40625 -7.171875 L 23.40625 -21.140625 C 23.40625 -22.816406 23.296875 -24.132812 23.078125 -25.09375 C 22.859375 -26.050781 22.515625 -26.765625 22.046875 -27.234375 C 21.578125 -27.703125 20.984375 -28.046875 20.265625 -28.265625 L 20.265625 -28.84375 L 25.828125 -28.84375 L 25.828125 -28.265625 C 25.140625 -28.046875 24.691406 -27.582031 24.484375 -26.875 C 24.285156 -26.175781 24.1875 -25.085938 24.1875 -23.609375 L 24.1875 0.328125 Z M 23.65625 0.328125 "/></g></g></g><g fill="#003d20" fill-opacity="1"><g transform="translate(41.533334, 33.988441)"><g><path d="M 7.75 0 L 7.75 -0.578125 C 8.4375 -0.796875 8.878906 -1.253906 9.078125 -1.953125 C 9.285156 -2.660156 9.390625 -3.753906 9.390625 -5.234375 L 9.390625 -28.09375 L 8.109375 -28.09375 C 6.273438 -28.09375 4.832031 -27.785156 3.78125 -27.171875 C 2.738281 -26.554688 1.835938 -25.425781 1.078125 -23.78125 L 0.578125 -23.859375 L 0.828125 -28.84375 L 22.296875 -28.84375 L 22.53125 -23.859375 L 22.046875 -23.78125 C 21.273438 -25.425781 20.367188 -26.554688 19.328125 -27.171875 C 18.285156 -27.785156 16.84375 -28.09375 15 -28.09375 L 13.796875 -28.09375 L 13.796875 -5.234375 C 13.796875 -3.753906 13.898438 -2.660156 14.109375 -1.953125 C 14.316406 -1.253906 14.765625 -0.796875 15.453125 -0.578125 L 15.453125 0 Z M 7.75 0 "/></g></g></g><g fill="#003d20" fill-opacity="1"><g transform="translate(65.594632, 33.988441)"><g><path d="M 1.9375 0 L 1.9375 -0.578125 C 2.625 -0.796875 3.066406 -1.253906 3.265625 -1.953125 C 3.472656 -2.660156 3.578125 -3.753906 3.578125 -5.234375 L 3.578125 -23.609375 C 3.578125 -25.085938 3.472656 -26.175781 3.265625 -26.875 C 3.066406 -27.582031 2.625 -28.046875 1.9375 -28.265625 L 1.9375 -28.84375 L 21.71875 -28.84375 L 22.171875 -23.03125 L 21.625 -22.90625 C 20.800781 -24.9375 19.695312 -26.320312 18.3125 -27.0625 C 16.925781 -27.8125 15.078125 -28.1875 12.765625 -28.1875 L 7.953125 -28.1875 L 7.953125 -15.828125 L 11.90625 -15.828125 C 13.582031 -15.828125 14.898438 -15.9375 15.859375 -16.15625 C 16.828125 -16.375 17.539062 -16.710938 18 -17.171875 C 18.46875 -17.640625 18.8125 -18.234375 19.03125 -18.953125 L 19.609375 -18.953125 L 19.609375 -12.03125 L 19.03125 -12.03125 C 18.8125 -12.75 18.46875 -13.335938 18 -13.796875 C 17.539062 -14.265625 16.828125 -14.609375 15.859375 -14.828125 C 14.898438 -15.046875 13.582031 -15.15625 11.90625 -15.15625 L 7.953125 -15.15625 L 7.953125 -2.71875 C 7.953125 -1.34375 8.640625 -0.65625 10.015625 -0.65625 L 13.96875 -0.65625 C 16.050781 -0.65625 17.804688 -1.039062 19.234375 -1.8125 C 20.671875 -2.582031 21.769531 -4.007812 22.53125 -6.09375 L 23.078125 -6.015625 L 22.78125 0 Z M 1.9375 0 "/></g></g></g><g fill="#003d20" fill-opacity="1"><g transform="translate(91.097954, 33.988441)"><g><path d="M 17.765625 0.40625 C 14.597656 0.40625 11.851562 -0.207031 9.53125 -1.4375 C 7.21875 -2.675781 5.421875 -4.421875 4.140625 -6.671875 C 2.859375 -8.921875 2.21875 -11.546875 2.21875 -14.546875 C 2.21875 -16.523438 2.585938 -18.390625 3.328125 -20.140625 C 4.078125 -21.898438 5.128906 -23.453125 6.484375 -24.796875 C 7.847656 -26.148438 9.484375 -27.207031 11.390625 -27.96875 C 13.296875 -28.738281 15.40625 -29.125 17.71875 -29.125 C 18.570312 -29.125 19.5625 -29.054688 20.6875 -28.921875 C 21.8125 -28.785156 22.910156 -28.570312 23.984375 -28.28125 C 25.054688 -28 25.945312 -27.609375 26.65625 -27.109375 L 26.828125 -21.671875 L 26.328125 -21.546875 C 25.773438 -22.972656 24.960938 -24.1875 23.890625 -25.1875 C 22.828125 -26.195312 21.617188 -26.972656 20.265625 -27.515625 C 18.921875 -28.066406 17.5625 -28.34375 16.1875 -28.34375 C 14.40625 -28.34375 12.785156 -27.9375 11.328125 -27.125 C 9.867188 -26.320312 8.710938 -25.101562 7.859375 -23.46875 C 7.015625 -21.832031 6.578125 -19.765625 6.546875 -17.265625 C 6.523438 -15.316406 6.796875 -13.359375 7.359375 -11.390625 C 7.921875 -9.429688 8.742188 -7.632812 9.828125 -6 C 10.910156 -4.363281 12.234375 -3.050781 13.796875 -2.0625 C 15.367188 -1.070312 17.144531 -0.578125 19.125 -0.578125 C 20.414062 -0.578125 21.601562 -0.84375 22.6875 -1.375 C 23.769531 -1.914062 24.570312 -2.691406 25.09375 -3.703125 L 25.09375 -7.453125 C 25.09375 -9.078125 24.953125 -10.234375 24.671875 -10.921875 C 24.398438 -11.609375 23.828125 -12.070312 22.953125 -12.3125 L 22.953125 -12.890625 L 29.34375 -12.890625 L 29.34375 -5.3125 C 28.320312 -3.96875 27.125 -2.875 25.75 -2.03125 C 24.375 -1.195312 22.984375 -0.582031 21.578125 -0.1875 C 20.179688 0.207031 18.910156 0.40625 17.765625 0.40625 Z M 17.765625 0.40625 "/></g></g></g><g fill="#003d20" fill-opacity="1"><g transform="translate(123.152216, 33.988441)"><g><path d="M 22.90625 0.28125 C 21.78125 0.28125 20.878906 0.03125 20.203125 -0.46875 C 19.535156 -0.976562 18.945312 -1.753906 18.4375 -2.796875 C 17.925781 -3.847656 17.34375 -5.164062 16.6875 -6.75 C 16.082031 -8.269531 15.570312 -9.539062 15.15625 -10.5625 C 14.75 -11.59375 14.351562 -12.414062 13.96875 -13.03125 C 13.582031 -13.65625 13.113281 -14.101562 12.5625 -14.375 C 12.019531 -14.65625 11.296875 -14.796875 10.390625 -14.796875 L 7.953125 -14.796875 L 7.953125 -5.234375 C 7.953125 -3.753906 8.050781 -2.660156 8.25 -1.953125 C 8.457031 -1.253906 8.90625 -0.796875 9.59375 -0.578125 L 9.59375 0 L 1.9375 0 L 1.9375 -0.578125 C 2.625 -0.796875 3.066406 -1.253906 3.265625 -1.953125 C 3.472656 -2.660156 3.578125 -3.753906 3.578125 -5.234375 L 3.578125 -23.609375 C 3.578125 -25.085938 3.472656 -26.175781 3.265625 -26.875 C 3.066406 -27.582031 2.625 -28.046875 1.9375 -28.265625 L 1.9375 -28.84375 L 10.59375 -28.84375 C 12.84375 -28.84375 14.675781 -28.65625 16.09375 -28.28125 C 17.507812 -27.914062 18.597656 -27.421875 19.359375 -26.796875 C 20.128906 -26.179688 20.664062 -25.472656 20.96875 -24.671875 C 21.269531 -23.878906 21.421875 -23.070312 21.421875 -22.25 C 21.421875 -20.351562 20.757812 -18.742188 19.4375 -17.421875 C 18.125 -16.109375 16.09375 -15.285156 13.34375 -14.953125 C 14.5 -14.816406 15.453125 -14.582031 16.203125 -14.25 C 16.960938 -13.925781 17.609375 -13.453125 18.140625 -12.828125 C 18.679688 -12.210938 19.171875 -11.429688 19.609375 -10.484375 C 20.046875 -9.535156 20.539062 -8.375 21.09375 -7 C 21.832031 -5.1875 22.40625 -3.8125 22.8125 -2.875 C 23.226562 -1.945312 23.613281 -1.320312 23.96875 -1 C 24.332031 -0.6875 24.757812 -0.53125 25.25 -0.53125 C 25.363281 -0.53125 25.46875 -0.53125 25.5625 -0.53125 C 25.65625 -0.53125 25.757812 -0.546875 25.875 -0.578125 L 25.875 0 C 25.40625 0.113281 24.878906 0.1875 24.296875 0.21875 C 23.722656 0.257812 23.257812 0.28125 22.90625 0.28125 Z M 7.953125 -15.453125 L 10.59375 -15.453125 C 12.15625 -15.453125 13.410156 -15.710938 14.359375 -16.234375 C 15.304688 -16.753906 15.992188 -17.457031 16.421875 -18.34375 C 16.847656 -19.238281 17.0625 -20.210938 17.0625 -21.265625 C 17.0625 -22.390625 16.8125 -23.476562 16.3125 -24.53125 C 15.820312 -25.59375 15.039062 -26.46875 13.96875 -27.15625 C 12.894531 -27.84375 11.492188 -28.1875 9.765625 -28.1875 C 9.191406 -28.1875 8.585938 -28.144531 7.953125 -28.0625 Z M 7.953125 -15.453125 "/></g></g></g><g fill="#003d20" fill-opacity="1"><g transform="translate(149.603168, 33.988441)"><g><path d="M -0.859375 0 L -0.859375 -0.578125 C -0.234375 -0.796875 0.359375 -1.21875 0.921875 -1.84375 C 1.484375 -2.476562 2.039062 -3.484375 2.59375 -4.859375 L 10.296875 -23.984375 C 10.597656 -24.753906 10.570312 -25.492188 10.21875 -26.203125 L 9.6875 -27.359375 L 13.71875 -29.171875 L 23.9375 -4.828125 C 24.507812 -3.472656 25.0625 -2.476562 25.59375 -1.84375 C 26.132812 -1.21875 26.640625 -0.796875 27.109375 -0.578125 L 27.109375 0 L 19.609375 0 L 19.609375 -0.578125 C 20.296875 -0.796875 20.550781 -1.21875 20.375 -1.84375 C 20.195312 -2.476562 19.816406 -3.472656 19.234375 -4.828125 L 16.765625 -10.75 L 5.765625 -10.75 L 3.375 -4.859375 C 2.820312 -3.484375 2.601562 -2.46875 2.71875 -1.8125 C 2.832031 -1.15625 3.234375 -0.742188 3.921875 -0.578125 L 3.921875 0 Z M 6.015625 -11.40625 L 16.484375 -11.40625 L 11.171875 -24.140625 Z M 6.015625 -11.40625 "/></g></g></g><g fill="#003d20" fill-opacity="1"><g transform="translate(177.084124, 33.988441)"><g><path d="M 22.90625 0.28125 C 21.78125 0.28125 20.878906 0.03125 20.203125 -0.46875 C 19.535156 -0.976562 18.945312 -1.753906 18.4375 -2.796875 C 17.925781 -3.847656 17.34375 -5.164062 16.6875 -6.75 C 16.082031 -8.269531 15.570312 -9.539062 15.15625 -10.5625 C 14.75 -11.59375 14.351562 -12.414062 13.96875 -13.03125 C 13.582031 -13.65625 13.113281 -14.101562 12.5625 -14.375 C 12.019531 -14.65625 11.296875 -14.796875 10.390625 -14.796875 L 7.953125 -14.796875 L 7.953125 -5.234375 C 7.953125 -3.753906 8.050781 -2.660156 8.25 -1.953125 C 8.457031 -1.253906 8.90625 -0.796875 9.59375 -0.578125 L 9.59375 0 L 1.9375 0 L 1.9375 -0.578125 C 2.625 -0.796875 3.066406 -1.253906 3.265625 -1.953125 C 3.472656 -2.660156 3.578125 -3.753906 3.578125 -5.234375 L 3.578125 -23.609375 C 3.578125 -25.085938 3.472656 -26.175781 3.265625 -26.875 C 3.066406 -27.582031 2.625 -28.046875 1.9375 -28.265625 L 1.9375 -28.84375 L 10.59375 -28.84375 C 12.84375 -28.84375 14.675781 -28.65625 16.09375 -28.28125 C 17.507812 -27.914062 18.597656 -27.421875 19.359375 -26.796875 C 20.128906 -26.179688 20.664062 -25.472656 20.96875 -24.671875 C 21.269531 -23.878906 21.421875 -23.070312 21.421875 -22.25 C 21.421875 -20.351562 20.757812 -18.742188 19.4375 -17.421875 C 18.125 -16.109375 16.09375 -15.285156 13.34375 -14.953125 C 14.5 -14.816406 15.453125 -14.582031 16.203125 -14.25 C 16.960938 -13.925781 17.609375 -13.453125 18.140625 -12.828125 C 18.679688 -12.210938 19.171875 -11.429688 19.609375 -10.484375 C 20.046875 -9.535156 20.539062 -8.375 21.09375 -7 C 21.832031 -5.1875 22.40625 -3.8125 22.8125 -2.875 C 23.226562 -1.945312 23.613281 -1.320312 23.96875 -1 C 24.332031 -0.6875 24.757812 -0.53125 25.25 -0.53125 C 25.363281 -0.53125 25.46875 -0.53125 25.5625 -0.53125 C 25.65625 -0.53125 25.757812 -0.546875 25.875 -0.578125 L 25.875 0 C 25.40625 0.113281 24.878906 0.1875 24.296875 0.21875 C 23.722656 0.257812 23.257812 0.28125 22.90625 0.28125 Z M 7.953125 -15.453125 L 10.59375 -15.453125 C 12.15625 -15.453125 13.410156 -15.710938 14.359375 -16.234375 C 15.304688 -16.753906 15.992188 -17.457031 16.421875 -18.34375 C 16.847656 -19.238281 17.0625 -20.210938 17.0625 -21.265625 C 17.0625 -22.390625 16.8125 -23.476562 16.3125 -24.53125 C 15.820312 -25.59375 15.039062 -26.46875 13.96875 -27.15625 C 12.894531 -27.84375 11.492188 -28.1875 9.765625 -28.1875 C 9.191406 -28.1875 8.585938 -28.144531 7.953125 -28.0625 Z M 7.953125 -15.453125 "/></g></g></g></g></g><g transform="matrix(1, 0, 0, 1, 165, 37)"><g clip-path="url(#8906070ce2)"><g fill="#003d20" fill-opacity="1"><g transform="translate(0.744489, 21.383155)"><g><path d="M 7.578125 0.265625 C 6.222656 0.265625 4.960938 0.078125 3.796875 -0.296875 C 2.628906 -0.679688 1.707031 -1.125 1.03125 -1.625 L 0.921875 -5.59375 L 1.265625 -5.640625 C 1.640625 -4.640625 2.148438 -3.734375 2.796875 -2.921875 C 3.441406 -2.117188 4.222656 -1.476562 5.140625 -1 C 6.054688 -0.53125 7.097656 -0.296875 8.265625 -0.296875 C 8.890625 -0.296875 9.46875 -0.421875 10 -0.671875 C 10.53125 -0.929688 10.960938 -1.304688 11.296875 -1.796875 C 11.628906 -2.296875 11.796875 -2.90625 11.796875 -3.625 C 11.796875 -4.28125 11.609375 -4.851562 11.234375 -5.34375 C 10.867188 -5.832031 10.398438 -6.253906 9.828125 -6.609375 C 9.253906 -6.972656 8.644531 -7.289062 8 -7.5625 C 7.363281 -7.84375 6.78125 -8.085938 6.25 -8.296875 C 5.351562 -8.679688 4.523438 -9.066406 3.765625 -9.453125 C 3.003906 -9.847656 2.394531 -10.347656 1.9375 -10.953125 C 1.476562 -11.566406 1.25 -12.390625 1.25 -13.421875 C 1.25 -15.066406 1.863281 -16.363281 3.09375 -17.3125 C 4.320312 -18.269531 5.976562 -18.75 8.0625 -18.75 C 9.050781 -18.75 9.972656 -18.648438 10.828125 -18.453125 C 11.691406 -18.253906 12.46875 -17.984375 13.15625 -17.640625 L 13.265625 -14.1875 L 12.96875 -14.078125 C 12.414062 -15.441406 11.613281 -16.484375 10.5625 -17.203125 C 9.507812 -17.929688 8.335938 -18.296875 7.046875 -18.296875 C 5.992188 -18.296875 5.097656 -18 4.359375 -17.40625 C 3.628906 -16.8125 3.265625 -15.992188 3.265625 -14.953125 C 3.265625 -14.367188 3.410156 -13.859375 3.703125 -13.421875 C 3.992188 -12.992188 4.378906 -12.617188 4.859375 -12.296875 C 5.347656 -11.984375 5.867188 -11.707031 6.421875 -11.46875 C 6.984375 -11.226562 7.53125 -11.003906 8.0625 -10.796875 C 8.726562 -10.523438 9.410156 -10.238281 10.109375 -9.9375 C 10.804688 -9.644531 11.445312 -9.289062 12.03125 -8.875 C 12.613281 -8.46875 13.082031 -7.984375 13.4375 -7.421875 C 13.789062 -6.859375 13.96875 -6.175781 13.96875 -5.375 C 13.96875 -4.476562 13.78125 -3.675781 13.40625 -2.96875 C 13.039062 -2.257812 12.546875 -1.664062 11.921875 -1.1875 C 11.304688 -0.71875 10.617188 -0.359375 9.859375 -0.109375 C 9.097656 0.140625 8.335938 0.265625 7.578125 0.265625 Z M 7.578125 0.265625 "/></g></g></g><g fill="#003d20" fill-opacity="1"><g transform="translate(16.045316, 21.383155)"><g><path d="M 4.984375 0 L 4.984375 -0.375 C 5.421875 -0.507812 5.707031 -0.800781 5.84375 -1.25 C 5.976562 -1.707031 6.046875 -2.414062 6.046875 -3.375 L 6.046875 -18.078125 L 5.21875 -18.078125 C 4.039062 -18.078125 3.113281 -17.878906 2.4375 -17.484375 C 1.769531 -17.085938 1.1875 -16.359375 0.6875 -15.296875 L 0.375 -15.359375 L 0.53125 -18.5625 L 14.34375 -18.5625 L 14.5 -15.359375 L 14.1875 -15.296875 C 13.6875 -16.359375 13.097656 -17.085938 12.421875 -17.484375 C 11.753906 -17.878906 10.832031 -18.078125 9.65625 -18.078125 L 8.875 -18.078125 L 8.875 -3.375 C 8.875 -2.414062 8.941406 -1.707031 9.078125 -1.25 C 9.210938 -0.800781 9.5 -0.507812 9.9375 -0.375 L 9.9375 0 Z M 4.984375 0 "/></g></g></g><g fill="#003d20" fill-opacity="1"><g transform="translate(31.531771, 21.383155)"><g><path d="M 9.78125 0.265625 C 8.832031 0.265625 7.894531 0.140625 6.96875 -0.109375 C 6.050781 -0.359375 5.222656 -0.769531 4.484375 -1.34375 C 3.742188 -1.914062 3.148438 -2.675781 2.703125 -3.625 C 2.265625 -4.582031 2.046875 -5.78125 2.046875 -7.21875 L 2.046875 -15.1875 C 2.046875 -16.144531 1.976562 -16.847656 1.84375 -17.296875 C 1.707031 -17.753906 1.421875 -18.050781 0.984375 -18.1875 L 0.984375 -18.5625 L 5.90625 -18.5625 L 5.90625 -18.1875 C 5.46875 -18.050781 5.179688 -17.753906 5.046875 -17.296875 C 4.921875 -16.847656 4.859375 -16.144531 4.859375 -15.1875 L 4.859375 -7 C 4.859375 -5.394531 5.101562 -4.101562 5.59375 -3.125 C 6.09375 -2.15625 6.789062 -1.453125 7.6875 -1.015625 C 8.59375 -0.585938 9.644531 -0.375 10.84375 -0.375 C 11.40625 -0.375 11.984375 -0.488281 12.578125 -0.71875 C 13.171875 -0.945312 13.722656 -1.320312 14.234375 -1.84375 C 14.753906 -2.363281 15.171875 -3.054688 15.484375 -3.921875 C 15.804688 -4.785156 15.96875 -5.863281 15.96875 -7.15625 L 15.96875 -13.609375 C 15.96875 -14.679688 15.894531 -15.523438 15.75 -16.140625 C 15.601562 -16.765625 15.378906 -17.226562 15.078125 -17.53125 C 14.785156 -17.832031 14.410156 -18.050781 13.953125 -18.1875 L 13.953125 -18.5625 L 17.5 -18.5625 L 17.5 -18.1875 C 17.0625 -18.050781 16.773438 -17.753906 16.640625 -17.296875 C 16.503906 -16.847656 16.4375 -16.144531 16.4375 -15.1875 L 16.4375 -7.21875 C 16.4375 -5.445312 16.148438 -4.007812 15.578125 -2.90625 C 15.003906 -1.800781 14.21875 -0.992188 13.21875 -0.484375 C 12.21875 0.015625 11.070312 0.265625 9.78125 0.265625 Z M 9.78125 0.265625 "/></g></g></g><g fill="#003d20" fill-opacity="1"><g transform="translate(50.385987, 21.383155)"><g><path d="M 1.25 0 L 1.25 -0.375 C 1.6875 -0.507812 1.972656 -0.800781 2.109375 -1.25 C 2.242188 -1.707031 2.3125 -2.414062 2.3125 -3.375 L 2.3125 -15.1875 C 2.3125 -16.144531 2.242188 -16.847656 2.109375 -17.296875 C 1.972656 -17.753906 1.6875 -18.050781 1.25 -18.1875 L 1.25 -18.5625 L 7.875 -18.5625 C 9.78125 -18.5625 11.382812 -18.285156 12.6875 -17.734375 C 13.988281 -17.191406 15.023438 -16.472656 15.796875 -15.578125 C 16.578125 -14.679688 17.144531 -13.710938 17.5 -12.671875 C 17.851562 -11.628906 18.03125 -10.625 18.03125 -9.65625 C 18.050781 -7.738281 17.664062 -6.054688 16.875 -4.609375 C 16.09375 -3.160156 14.976562 -2.03125 13.53125 -1.21875 C 12.09375 -0.40625 10.398438 0 8.453125 0 Z M 5.125 -2.359375 C 5.125 -1.742188 5.226562 -1.265625 5.4375 -0.921875 C 5.644531 -0.585938 6.113281 -0.421875 6.84375 -0.421875 L 8.265625 -0.421875 C 10.410156 -0.421875 12.050781 -1.035156 13.1875 -2.265625 C 14.332031 -3.492188 14.90625 -5.523438 14.90625 -8.359375 C 14.90625 -10.171875 14.585938 -11.816406 13.953125 -13.296875 C 13.316406 -14.773438 12.351562 -15.953125 11.0625 -16.828125 C 9.78125 -17.703125 8.148438 -18.140625 6.171875 -18.140625 L 5.125 -18.140625 Z M 5.125 -2.359375 "/></g></g></g><g fill="#003d20" fill-opacity="1"><g transform="translate(70.406986, 21.383155)"><g><path d="M 1.25 0 L 1.25 -0.375 C 1.6875 -0.507812 1.972656 -0.800781 2.109375 -1.25 C 2.242188 -1.707031 2.3125 -2.414062 2.3125 -3.375 L 2.3125 -15.1875 C 2.3125 -16.144531 2.242188 -16.847656 2.109375 -17.296875 C 1.972656 -17.753906 1.6875 -18.050781 1.25 -18.1875 L 1.25 -18.5625 L 6.171875 -18.5625 L 6.171875 -18.1875 C 5.734375 -18.050781 5.445312 -17.753906 5.3125 -17.296875 C 5.1875 -16.847656 5.125 -16.144531 5.125 -15.1875 L 5.125 -3.375 C 5.125 -2.414062 5.1875 -1.707031 5.3125 -1.25 C 5.445312 -0.800781 5.734375 -0.507812 6.171875 -0.375 L 6.171875 0 Z M 1.25 0 "/></g></g></g><g fill="#003d20" fill-opacity="1"><g transform="translate(78.468453, 21.383155)"><g><path d="M 10.921875 0.265625 C 9.796875 0.265625 8.675781 0.078125 7.5625 -0.296875 C 6.445312 -0.679688 5.425781 -1.265625 4.5 -2.046875 C 3.570312 -2.835938 2.828125 -3.835938 2.265625 -5.046875 C 1.710938 -6.265625 1.4375 -7.703125 1.4375 -9.359375 C 1.4375 -10.671875 1.664062 -11.894531 2.125 -13.03125 C 2.582031 -14.175781 3.226562 -15.175781 4.0625 -16.03125 C 4.90625 -16.882812 5.910156 -17.550781 7.078125 -18.03125 C 8.242188 -18.519531 9.523438 -18.765625 10.921875 -18.765625 C 12.035156 -18.765625 13.15625 -18.570312 14.28125 -18.1875 C 15.40625 -17.800781 16.425781 -17.210938 17.34375 -16.421875 C 18.257812 -15.640625 18.992188 -14.644531 19.546875 -13.4375 C 20.109375 -12.238281 20.390625 -10.828125 20.390625 -9.203125 C 20.390625 -7.585938 20.109375 -6.179688 19.546875 -4.984375 C 18.992188 -3.796875 18.253906 -2.8125 17.328125 -2.03125 C 16.398438 -1.257812 15.378906 -0.679688 14.265625 -0.296875 C 13.148438 0.078125 12.035156 0.265625 10.921875 0.265625 Z M 4.1875 -10.984375 C 4.28125 -9.648438 4.550781 -8.359375 5 -7.109375 C 5.445312 -5.867188 6.03125 -4.757812 6.75 -3.78125 C 7.476562 -2.800781 8.320312 -2.019531 9.28125 -1.4375 C 10.25 -0.851562 11.300781 -0.5625 12.4375 -0.5625 C 13.800781 -0.5625 14.878906 -0.863281 15.671875 -1.46875 C 16.460938 -2.082031 17.019531 -2.882812 17.34375 -3.875 C 17.675781 -4.863281 17.800781 -5.941406 17.71875 -7.109375 C 17.601562 -8.523438 17.332031 -9.882812 16.90625 -11.1875 C 16.488281 -12.5 15.921875 -13.675781 15.203125 -14.71875 C 14.492188 -15.757812 13.660156 -16.578125 12.703125 -17.171875 C 11.742188 -17.773438 10.691406 -18.078125 9.546875 -18.078125 C 8.347656 -18.078125 7.332031 -17.785156 6.5 -17.203125 C 5.664062 -16.617188 5.050781 -15.789062 4.65625 -14.71875 C 4.257812 -13.65625 4.101562 -12.410156 4.1875 -10.984375 Z M 4.1875 -10.984375 "/></g></g></g></g></g></svg>